<svg width="229" height="130" viewBox="0 0 229 130" fill="none" xmlns="http://www.w3.org/2000/svg">
<path d="M0.565226 24.4086C0.672126 23.9371 1.02939 23.5597 1.49535 23.426L36.4648 13.4486C36.8186 13.3479 37.1846 13.5516 37.2821 13.9035C37.3796 14.2554 37.1718 14.6224 36.818 14.7232L3.41421 24.2578L27.5011 29.2527C27.8596 29.3272 28.0868 29.678 28.0086 30.0363C27.9305 30.3946 27.5765 30.6247 27.218 30.5503L2.76605 25.4787L11.0811 32.6859L21.6583 42.7937C21.8059 42.9355 22.0117 43.0004 22.2156 42.9694C22.4108 42.9393 22.5813 42.8195 22.6761 42.646L27.7058 34.2851L30.052 30.1857C30.2344 29.8665 30.6402 29.7526 30.9585 29.9313C30.9977 29.9582 31.0337 29.9894 31.0658 30.0244L31.0785 30.0146L37.8567 35.2413L33.7426 24.8362L13.6172 25.2933C13.371 25.3133 13.1353 25.1958 13.0051 24.9879C12.8749 24.78 12.8717 24.5162 12.9968 24.3028C13.1219 24.0893 13.3547 23.9615 13.6012 23.9708L33.8268 23.5071L40.2379 12.606C40.4257 12.2918 40.8309 12.1852 41.1453 12.3672C41.4597 12.5492 41.5654 12.9517 41.3819 13.2683L34.9354 24.2261L39.0969 34.7557C39.3108 35.3004 39.1352 35.924 38.6666 36.2837L38.6545 36.2931C38.3962 36.4855 38.0769 36.577 37.7576 36.5501C37.7307 36.5533 37.7036 36.5547 37.6766 36.5543L28.5877 35.3344L23.8251 43.3028C23.5286 43.8272 23.0059 44.1868 22.4107 44.276C21.8004 44.3719 21.1829 44.1801 20.7393 43.7568L10.1834 33.6669L0.993781 25.7033C0.622059 25.3857 0.457406 24.8883 0.565226 24.4086ZM35.2222 34.8893L30.824 31.5009L29.6403 33.5738L29.3272 34.0977L35.2222 34.8893Z" fill="#F5E8D0"/>
<path opacity="0.7" d="M39 35.5002C39 35.5002 60.5 26.5002 78.5 38.0002C93 53 78.5 58.5002 90.5 76.5002C94.7608 82.8914 105.473 84.7065 117 84.5316C150 73 154.5 104 185 68" stroke="white" stroke-linecap="round" stroke-dasharray="2 5"/>
<g filter="url(#filter0_b_5469_2)">
<path d="M186.648 45.0695C187.649 43.9069 189.533 44.2586 190.047 45.7042L194.944 59.4611C195.246 60.3098 196.078 60.8519 196.976 60.785L211.538 59.7009C213.068 59.587 214.152 61.1676 213.493 62.5536L207.228 75.7433C206.841 76.557 207.046 77.5288 207.729 78.1167L218.792 87.647C219.955 88.6485 219.603 90.532 218.158 91.0465L204.401 95.9426C203.552 96.2447 203.01 97.0769 203.077 97.9753L204.161 112.537C204.275 114.067 202.694 115.151 201.308 114.492L188.118 108.227C187.305 107.84 186.333 108.045 185.745 108.728L176.215 119.791C175.213 120.954 173.33 120.602 172.815 119.157L167.919 105.4C167.617 104.551 166.785 104.009 165.886 104.076L151.324 105.16C149.794 105.274 148.711 103.693 149.369 102.307L155.635 89.1175C156.022 88.3038 155.816 87.332 155.134 86.744L144.07 77.2137C142.908 76.2123 143.26 74.3287 144.705 73.8142L158.462 68.9181C159.311 68.6161 159.853 67.7838 159.786 66.8854L158.702 52.3235C158.588 50.7933 160.169 49.7101 161.555 50.3685L174.744 56.634C175.558 57.0206 176.53 56.8154 177.118 56.1328L186.648 45.0695Z" fill="#F59B00"/>
<path d="M187.027 45.3958C187.778 44.5239 189.191 44.7876 189.576 45.8718L194.473 59.6288C194.85 60.6897 195.89 61.3672 197.013 61.2836L211.575 60.1996C212.723 60.1141 213.535 61.2995 213.042 62.339L206.776 75.5287C206.293 76.5459 206.549 77.7606 207.403 78.4956L218.466 88.0258C219.338 88.7769 219.074 90.1896 217.99 90.5755L204.233 95.4716C203.172 95.8492 202.494 96.8894 202.578 98.0125L203.662 112.574C203.748 113.722 202.562 114.534 201.523 114.041L188.333 107.775C187.316 107.292 186.101 107.548 185.366 108.402L175.836 119.465C175.085 120.337 173.672 120.073 173.286 118.989L168.39 105.232C168.013 104.171 166.972 103.494 165.849 103.577L151.287 104.661C150.14 104.747 149.327 103.561 149.821 102.522L156.087 89.332C156.57 88.3149 156.313 87.1002 155.46 86.3652L144.397 76.8349C143.525 76.0838 143.789 74.6711 144.873 74.2853L158.63 69.3892C159.691 69.0116 160.368 67.9713 160.285 66.8483L159.201 52.2864C159.115 51.1387 160.3 50.3263 161.34 50.8201L174.53 57.0857C175.547 57.5689 176.762 57.3124 177.496 56.4592L187.027 45.3958Z" stroke="white"/>
</g>
<defs>
<filter id="filter0_b_5469_2" x="123.375" y="24.374" width="116.113" height="116.113" filterUnits="userSpaceOnUse" color-interpolation-filters="sRGB">
<feFlood flood-opacity="0" result="BackgroundImageFix"/>
<feGaussianBlur in="BackgroundImageFix" stdDeviation="10"/>
<feComposite in2="SourceAlpha" operator="in" result="effect1_backgroundBlur_5469_2"/>
<feBlend mode="normal" in="SourceGraphic" in2="effect1_backgroundBlur_5469_2" result="shape"/>
</filter>
</defs>
</svg>
